# xmcd
#
# Track frame offsets:
#	150
#	12285
#	22808
#	43611
#	56754
#	70042
#	84799
#	98520
#	110682
#	124766
#	140520
#	155780
#	172694
#
# Disc length: 2488 seconds
#
# Revision: 1
# Processed by: cddbd v1.5.1PL2 Copyright (c) Steve Scherf et al.
# Submitted via: audiograbber 1.83.01
#
DISCID=9a09b60d
DTITLE=Various Artist - Heartbreaker: A Bluegrass Tribute To JoDee Messina
DYEAR=2005
DGENRE=Bluegrass
TTITLE0=My Give A Damn's Busted
TTITLE1=Delicious Surprise (I Believe It)
TTITLE2=It Gets Better
TTITLE3=That's The Way
TTITLE4=No Time For Tears
TTITLE5=Bye Bye
TTITLE6=Burn
TTITLE7=You're Not In Kansas Anymore
TTITLE8=Bring On The Rain
TTITLE9=Downtime
TTITLE10=Stand Beside Me
TTITLE11=Heads Carolina, Tails California
TTITLE12=I'm Alright
EXTD=
EXTT0=
EXTT1=
EXTT2=
EXTT3=
EXTT4=
EXTT5=
EXTT6=
EXTT7=
EXTT8=
EXTT9=
EXTT10=
EXTT11=
EXTT12=
PLAYORDER=
